<svg aria-roledescription="er" viewBox="0 0 695.711669921875 320" style="max-width: 695.712px; background-color: white;" xmlns:xlink="http://www.w3.org/1999/xlink" xmlns="http://www.w3.org/2000/svg" width="100%" id="mermaid-0"><style>#mermaid-0{font-family:"trebuchet ms",verdana,arial,sans-serif;font-size:16px;fill:#000000;}#mermaid-0 .error-icon{fill:#552222;}#mermaid-0 .error-text{fill:#552222;stroke:#552222;}#mermaid-0 .edge-thickness-normal{stroke-width:2px;}#mermaid-0 .edge-thickness-thick{stroke-width:3.5px;}#mermaid-0 .edge-pattern-solid{stroke-dasharray:0;}#mermaid-0 .edge-pattern-dashed{stroke-dasharray:3;}#mermaid-0 .edge-pattern-dotted{stroke-dasharray:2;}#mermaid-0 .marker{fill:#000000;stroke:#000000;}#mermaid-0 .marker.cross{stroke:#000000;}#mermaid-0 svg{font-family:"trebuchet ms",verdana,arial,sans-serif;font-size:16px;}#mermaid-0 .entityBox{fill:#cde498;stroke:#13540c;}#mermaid-0 .attributeBoxOdd{fill:#ffffff;stroke:#13540c;}#mermaid-0 .attributeBoxEven{fill:#f2f2f2;stroke:#13540c;}#mermaid-0 .relationshipLabelBox{fill:hsl(78.1578947368, 58.4615384615%, 84.5098039216%);opacity:0.7;background-color:hsl(78.1578947368, 58.4615384615%, 84.5098039216%);}#mermaid-0 .relationshipLabelBox rect{opacity:0.5;}#mermaid-0 .relationshipLine{stroke:#000000;}#mermaid-0 .entityTitleText{text-anchor:middle;font-size:18px;fill:#000000;}#mermaid-0 :root{--mermaid-font-family:"trebuchet ms",verdana,arial,sans-serif;}</style><g/><defs><marker orient="auto" markerHeight="18" markerWidth="18" refY="9" refX="0" id="ONLY_ONE_START"><path d="M9,0 L9,18 M15,0 L15,18" fill="none" stroke="gray"/></marker></defs><defs><marker orient="auto" markerHeight="18" markerWidth="18" refY="9" refX="18" id="ONLY_ONE_END"><path d="M3,0 L3,18 M9,0 L9,18" fill="none" stroke="gray"/></marker></defs><defs><marker orient="auto" markerHeight="18" markerWidth="30" refY="9" refX="0" id="ZERO_OR_ONE_START"><circle r="6" cy="9" cx="21" fill="white" stroke="gray"/><path d="M9,0 L9,18" fill="none" stroke="gray"/></marker></defs><defs><marker orient="auto" markerHeight="18" markerWidth="30" refY="9" refX="30" id="ZERO_OR_ONE_END"><circle r="6" cy="9" cx="9" fill="white" stroke="gray"/><path d="M21,0 L21,18" fill="none" stroke="gray"/></marker></defs><defs><marker orient="auto" markerHeight="36" markerWidth="45" refY="18" refX="18" id="ONE_OR_MORE_START"><path d="M0,18 Q 18,0 36,18 Q 18,36 0,18 M42,9 L42,27" fill="none" stroke="gray"/></marker></defs><defs><marker orient="auto" markerHeight="36" markerWidth="45" refY="18" refX="27" id="ONE_OR_MORE_END"><path d="M3,9 L3,27 M9,18 Q27,0 45,18 Q27,36 9,18" fill="none" stroke="gray"/></marker></defs><defs><marker orient="auto" markerHeight="36" markerWidth="57" refY="18" refX="18" id="ZERO_OR_MORE_START"><circle r="6" cy="18" cx="48" fill="white" stroke="gray"/><path d="M0,18 Q18,0 36,18 Q18,36 0,18" fill="none" stroke="gray"/></marker></defs><defs><marker orient="auto" markerHeight="36" markerWidth="57" refY="18" refX="39" id="ZERO_OR_MORE_END"><circle r="6" cy="18" cx="9" fill="white" stroke="gray"/><path d="M21,18 Q39,0 57,18 Q39,36 21,18" fill="none" stroke="gray"/></marker></defs><path style="stroke: gray; fill: none;" marker-start="url(#ZERO_OR_MORE_START)" marker-end="url(#ONLY_ONE_END)" d="M307.6186218261719,99L307.6186218261719,109.16666666666667C307.6186218261719,119.33333333333333,307.6186218261719,139.66666666666666,312.0045867384526,158.16666666666666C316.39055165073324,176.66666666666666,325.16248147529467,193.33333333333334,329.5484463875754,201.66666666666666L333.9344112998561,210" class="er relationshipLine"/><path style="stroke: gray; fill: none;" marker-start="url(#ZERO_OR_MORE_START)" marker-end="url(#ONLY_ONE_END)" d="M583.8824238024259,88L590.1982132761101,100C596.5140027497944,112,609.1455816971628,136,615.461371170847,158.16666666666666C621.7771606445312,180.33333333333334,621.7771606445312,200.66666666666666,621.7771606445312,210.83333333333334L621.7771606445312,221" class="er relationshipLine"/><path style="stroke: gray; fill: none;" marker-start="url(#ZERO_OR_MORE_START)" marker-end="url(#ONLY_ONE_END)" d="M545.488088828639,88L531.7720513594778,100C518.0560138903166,112,490.6239389519942,136,467.6470907646313,156.33333333333334C444.6702425772684,176.66666666666666,426.14862114086486,193.33333333333334,416.8878104226631,201.66666666666666L407.62699970446135,210" class="er relationshipLine"/><g transform="translate(294.38255310058594,210 )" id="entity-habits-0468c1a5-5e5b-4fae-ae4b-13fc3b03f2cf"><rect height="90" width="126.47213745117188" y="0" x="0" class="er entityBox"/><text style="dominant-baseline: middle; text-anchor: middle; font-size: 12px;" transform="translate(63.23606872558594,12)" y="0" x="0" id="text-entity-habits-0468c1a5-5e5b-4fae-ae4b-13fc3b03f2cf" class="er entityLabel">habits</text><rect height="22" width="54.095550537109375" y="24" x="0" class="er attributeBoxOdd"/><text style="dominant-baseline: middle; font-size: 10.2px;" transform="translate(5,35)" y="0" x="0" id="text-entity-habits-0468c1a5-5e5b-4fae-ae4b-13fc3b03f2cf-attr-1-type" class="er entityLabel">String</text><rect height="22" width="49.68890380859375" y="24" x="54.095550537109375" class="er attributeBoxOdd"/><text style="dominant-baseline: middle; font-size: 10.2px;" transform="translate(59.095550537109375,35)" y="0" x="0" id="text-entity-habits-0468c1a5-5e5b-4fae-ae4b-13fc3b03f2cf-attr-1-name" class="er entityLabel">id</text><rect height="22" width="22.68768310546875" y="24" x="103.78445434570312" class="er attributeBoxOdd"/><text style="dominant-baseline: middle; font-size: 10.2px;" transform="translate(108.78445434570312,35)" y="0" x="0" id="text-entity-habits-0468c1a5-5e5b-4fae-ae4b-13fc3b03f2cf-attr-1-key" class="er entityLabel">PK</text><rect height="22" width="54.095550537109375" y="46" x="0" class="er attributeBoxEven"/><text style="dominant-baseline: middle; font-size: 10.2px;" transform="translate(5,57)" y="0" x="0" id="text-entity-habits-0468c1a5-5e5b-4fae-ae4b-13fc3b03f2cf-attr-2-type" class="er entityLabel">String</text><rect height="22" width="49.68890380859375" y="46" x="54.095550537109375" class="er attributeBoxEven"/><text style="dominant-baseline: middle; font-size: 10.2px;" transform="translate(59.095550537109375,57)" y="0" x="0" id="text-entity-habits-0468c1a5-5e5b-4fae-ae4b-13fc3b03f2cf-attr-2-name" class="er entityLabel">title</text><rect height="22" width="22.68768310546875" y="46" x="103.78445434570312" class="er attributeBoxEven"/><text style="dominant-baseline: middle; font-size: 10.2px;" transform="translate(108.78445434570312,57)" y="0" x="0" id="text-entity-habits-0468c1a5-5e5b-4fae-ae4b-13fc3b03f2cf-attr-2-key" class="er entityLabel"/><rect height="22" width="54.095550537109375" y="68" x="0" class="er attributeBoxOdd"/><text style="dominant-baseline: middle; font-size: 10.2px;" transform="translate(5,79)" y="0" x="0" id="text-entity-habits-0468c1a5-5e5b-4fae-ae4b-13fc3b03f2cf-attr-3-type" class="er entityLabel">DateTime</text><rect height="22" width="49.68890380859375" y="68" x="54.095550537109375" class="er attributeBoxOdd"/><text style="dominant-baseline: middle; font-size: 10.2px;" transform="translate(59.095550537109375,79)" y="0" x="0" id="text-entity-habits-0468c1a5-5e5b-4fae-ae4b-13fc3b03f2cf-attr-3-name" class="er entityLabel">creat_at</text><rect height="22" width="22.68768310546875" y="68" x="103.78445434570312" class="er attributeBoxOdd"/><text style="dominant-baseline: middle; font-size: 10.2px;" transform="translate(108.78445434570312,79)" y="0" x="0" id="text-entity-habits-0468c1a5-5e5b-4fae-ae4b-13fc3b03f2cf-attr-3-key" class="er entityLabel"/></g><g transform="translate(20,20 )" id="entity-navys-20690ad5-6ecf-48ef-aa16-2510b37b5b8a"><rect height="90" width="126.47213745117188" y="0" x="0" class="er entityBox"/><text style="dominant-baseline: middle; text-anchor: middle; font-size: 12px;" transform="translate(63.23606872558594,12)" y="0" x="0" id="text-entity-navys-20690ad5-6ecf-48ef-aa16-2510b37b5b8a" class="er entityLabel">navys</text><rect height="22" width="54.095550537109375" y="24" x="0" class="er attributeBoxOdd"/><text style="dominant-baseline: middle; font-size: 10.2px;" transform="translate(5,35)" y="0" x="0" id="text-entity-navys-20690ad5-6ecf-48ef-aa16-2510b37b5b8a-attr-1-type" class="er entityLabel">String</text><rect height="22" width="49.68890380859375" y="24" x="54.095550537109375" class="er attributeBoxOdd"/><text style="dominant-baseline: middle; font-size: 10.2px;" transform="translate(59.095550537109375,35)" y="0" x="0" id="text-entity-navys-20690ad5-6ecf-48ef-aa16-2510b37b5b8a-attr-1-name" class="er entityLabel">id</text><rect height="22" width="22.68768310546875" y="24" x="103.78445434570312" class="er attributeBoxOdd"/><text style="dominant-baseline: middle; font-size: 10.2px;" transform="translate(108.78445434570312,35)" y="0" x="0" id="text-entity-navys-20690ad5-6ecf-48ef-aa16-2510b37b5b8a-attr-1-key" class="er entityLabel">PK</text><rect height="22" width="54.095550537109375" y="46" x="0" class="er attributeBoxEven"/><text style="dominant-baseline: middle; font-size: 10.2px;" transform="translate(5,57)" y="0" x="0" id="text-entity-navys-20690ad5-6ecf-48ef-aa16-2510b37b5b8a-attr-2-type" class="er entityLabel">String</text><rect height="22" width="49.68890380859375" y="46" x="54.095550537109375" class="er attributeBoxEven"/><text style="dominant-baseline: middle; font-size: 10.2px;" transform="translate(59.095550537109375,57)" y="0" x="0" id="text-entity-navys-20690ad5-6ecf-48ef-aa16-2510b37b5b8a-attr-2-name" class="er entityLabel">title</text><rect height="22" width="22.68768310546875" y="46" x="103.78445434570312" class="er attributeBoxEven"/><text style="dominant-baseline: middle; font-size: 10.2px;" transform="translate(108.78445434570312,57)" y="0" x="0" id="text-entity-navys-20690ad5-6ecf-48ef-aa16-2510b37b5b8a-attr-2-key" class="er entityLabel"/><rect height="22" width="54.095550537109375" y="68" x="0" class="er attributeBoxOdd"/><text style="dominant-baseline: middle; font-size: 10.2px;" transform="translate(5,79)" y="0" x="0" id="text-entity-navys-20690ad5-6ecf-48ef-aa16-2510b37b5b8a-attr-3-type" class="er entityLabel">DateTime</text><rect height="22" width="49.68890380859375" y="68" x="54.095550537109375" class="er attributeBoxOdd"/><text style="dominant-baseline: middle; font-size: 10.2px;" transform="translate(59.095550537109375,79)" y="0" x="0" id="text-entity-navys-20690ad5-6ecf-48ef-aa16-2510b37b5b8a-attr-3-name" class="er entityLabel">creat_at</text><rect height="22" width="22.68768310546875" y="68" x="103.78445434570312" class="er attributeBoxOdd"/><text style="dominant-baseline: middle; font-size: 10.2px;" transform="translate(108.78445434570312,79)" y="0" x="0" id="text-entity-navys-20690ad5-6ecf-48ef-aa16-2510b37b5b8a-attr-3-key" class="er entityLabel"/></g><g transform="translate(246.47213745117188,31 )" id="entity-habitweekdays-f42cf70f-adc3-4bb5-b51a-4e68a1334f0e"><rect height="68" width="122.29296875" y="0" x="0" class="er entityBox"/><text style="dominant-baseline: middle; text-anchor: middle; font-size: 12px;" transform="translate(61.146484375,12)" y="0" x="0" id="text-entity-habitweekdays-f42cf70f-adc3-4bb5-b51a-4e68a1334f0e" class="er entityLabel">habit_week_days</text><rect height="22" width="39.0484364827474" y="24" x="0" class="er attributeBoxOdd"/><text style="dominant-baseline: middle; font-size: 10.2px;" transform="translate(5,35)" y="0" x="0" id="text-entity-habitweekdays-f42cf70f-adc3-4bb5-b51a-4e68a1334f0e-attr-1-type" class="er entityLabel">String</text><rect height="22" width="58.90446980794271" y="24" x="39.0484364827474" class="er attributeBoxOdd"/><text style="dominant-baseline: middle; font-size: 10.2px;" transform="translate(44.0484364827474,35)" y="0" x="0" id="text-entity-habitweekdays-f42cf70f-adc3-4bb5-b51a-4e68a1334f0e-attr-1-name" class="er entityLabel">id</text><rect height="22" width="24.340062459309895" y="24" x="97.95290629069011" class="er attributeBoxOdd"/><text style="dominant-baseline: middle; font-size: 10.2px;" transform="translate(102.95290629069011,35)" y="0" x="0" id="text-entity-habitweekdays-f42cf70f-adc3-4bb5-b51a-4e68a1334f0e-attr-1-key" class="er entityLabel">PK</text><rect height="22" width="39.0484364827474" y="46" x="0" class="er attributeBoxEven"/><text style="dominant-baseline: middle; font-size: 10.2px;" transform="translate(5,57)" y="0" x="0" id="text-entity-habitweekdays-f42cf70f-adc3-4bb5-b51a-4e68a1334f0e-attr-2-type" class="er entityLabel">Int</text><rect height="22" width="58.90446980794271" y="46" x="39.0484364827474" class="er attributeBoxEven"/><text style="dominant-baseline: middle; font-size: 10.2px;" transform="translate(44.0484364827474,57)" y="0" x="0" id="text-entity-habitweekdays-f42cf70f-adc3-4bb5-b51a-4e68a1334f0e-attr-2-name" class="er entityLabel">week_day</text><rect height="22" width="24.340062459309895" y="46" x="97.95290629069011" class="er attributeBoxEven"/><text style="dominant-baseline: middle; font-size: 10.2px;" transform="translate(102.95290629069011,57)" y="0" x="0" id="text-entity-habitweekdays-f42cf70f-adc3-4bb5-b51a-4e68a1334f0e-attr-2-key" class="er entityLabel"/></g><g transform="translate(567.8426361083984,221 )" id="entity-days-3fed6dcd-b09f-4cd9-a54a-e1669cc05fa0"><rect height="68" width="107.86904907226562" y="0" x="0" class="er entityBox"/><text style="dominant-baseline: middle; text-anchor: middle; font-size: 12px;" transform="translate(53.93452453613281,12)" y="0" x="0" id="text-entity-days-3fed6dcd-b09f-4cd9-a54a-e1669cc05fa0" class="er entityLabel">days</text><rect height="22" width="54.095550537109375" y="24" x="0" class="er attributeBoxOdd"/><text style="dominant-baseline: middle; font-size: 10.2px;" transform="translate(5,35)" y="0" x="0" id="text-entity-days-3fed6dcd-b09f-4cd9-a54a-e1669cc05fa0-attr-1-type" class="er entityLabel">String</text><rect height="22" width="31.0858154296875" y="24" x="54.095550537109375" class="er attributeBoxOdd"/><text style="dominant-baseline: middle; font-size: 10.2px;" transform="translate(59.095550537109375,35)" y="0" x="0" id="text-entity-days-3fed6dcd-b09f-4cd9-a54a-e1669cc05fa0-attr-1-name" class="er entityLabel">id</text><rect height="22" width="22.68768310546875" y="24" x="85.18136596679688" class="er attributeBoxOdd"/><text style="dominant-baseline: middle; font-size: 10.2px;" transform="translate(90.18136596679688,35)" y="0" x="0" id="text-entity-days-3fed6dcd-b09f-4cd9-a54a-e1669cc05fa0-attr-1-key" class="er entityLabel">PK</text><rect height="22" width="54.095550537109375" y="46" x="0" class="er attributeBoxEven"/><text style="dominant-baseline: middle; font-size: 10.2px;" transform="translate(5,57)" y="0" x="0" id="text-entity-days-3fed6dcd-b09f-4cd9-a54a-e1669cc05fa0-attr-2-type" class="er entityLabel">DateTime</text><rect height="22" width="31.0858154296875" y="46" x="54.095550537109375" class="er attributeBoxEven"/><text style="dominant-baseline: middle; font-size: 10.2px;" transform="translate(59.095550537109375,57)" y="0" x="0" id="text-entity-days-3fed6dcd-b09f-4cd9-a54a-e1669cc05fa0-attr-2-name" class="er entityLabel">date</text><rect height="22" width="22.68768310546875" y="46" x="85.18136596679688" class="er attributeBoxEven"/><text style="dominant-baseline: middle; font-size: 10.2px;" transform="translate(90.18136596679688,57)" y="0" x="0" id="text-entity-days-3fed6dcd-b09f-4cd9-a54a-e1669cc05fa0-attr-2-key" class="er entityLabel"/></g><g transform="translate(521.7771606445312,42 )" id="entity-dayhabits-ec29af7e-2d31-4186-8b24-48956389a93c"><rect height="46" width="100" y="0" x="0" class="er entityBox"/><text style="dominant-baseline: middle; text-anchor: middle; font-size: 12px;" transform="translate(50,12)" y="0" x="0" id="text-entity-dayhabits-ec29af7e-2d31-4186-8b24-48956389a93c" class="er entityLabel">day_habits</text><rect height="22" width="44.39861551920573" y="24" x="0" class="er attributeBoxOdd"/><text style="dominant-baseline: middle; font-size: 10.2px;" transform="translate(5,35)" y="0" x="0" id="text-entity-dayhabits-ec29af7e-2d31-4186-8b24-48956389a93c-attr-1-type" class="er entityLabel">String</text><rect height="22" width="25.911142985026043" y="24" x="44.39861551920573" class="er attributeBoxOdd"/><text style="dominant-baseline: middle; font-size: 10.2px;" transform="translate(49.39861551920573,35)" y="0" x="0" id="text-entity-dayhabits-ec29af7e-2d31-4186-8b24-48956389a93c-attr-1-name" class="er entityLabel">id</text><rect height="22" width="29.69024149576823" y="24" x="70.30975850423177" class="er attributeBoxOdd"/><text style="dominant-baseline: middle; font-size: 10.2px;" transform="translate(75.30975850423177,35)" y="0" x="0" id="text-entity-dayhabits-ec29af7e-2d31-4186-8b24-48956389a93c-attr-1-key" class="er entityLabel">PK</text></g><rect height="14" width="27.96875" y="149.69284057617188" x="297.6810302734375" class="er relationshipLabelBox"/><text style="text-anchor: middle; dominant-baseline: middle; font-size: 12px;" y="156.69284057617188" x="311.6654052734375" id="rel1" class="er relationshipLabel">habit</text><rect height="14" width="19.990234375" y="144.62586975097656" x="603.4443969726562" class="er relationshipLabelBox"/><text style="text-anchor: middle; dominant-baseline: middle; font-size: 12px;" y="151.62586975097656" x="613.4395141601562" id="rel2" class="er relationshipLabel">day</text><rect height="14" width="27.96875" y="141.697265625" x="462.3050231933594" class="er relationshipLabelBox"/><text style="text-anchor: middle; dominant-baseline: middle; font-size: 12px;" y="148.697265625" x="476.2893981933594" id="rel3" class="er relationshipLabel">habit</text></svg>